<svg width="250" height="250" viewBox="0 0 250 250" fill="none" xmlns="http://www.w3.org/2000/svg">
<path d="M189.521 76.6475H149.06C146.459 76.6475 144.217 78.4772 143.695 81.0256L112.315 191.352C111.619 194.749 114.214 197.929 117.681 197.929H158.141C160.742 197.929 162.985 196.099 163.507 193.551L194.887 83.2238C195.582 79.8276 192.988 76.6475 189.521 76.6475Z" fill="white"/>
<path d="M133.319 52H92.8589C90.2576 52 88.0151 53.8297 87.4931 56.3781L56.1134 166.705C55.4177 170.101 58.0124 173.281 61.4792 173.281H101.94C104.541 173.281 106.783 171.452 107.305 168.903L138.685 58.5763C139.381 55.1801 136.786 52 133.319 52Z" fill="white"/>
</svg>
